<svg xmlns="http://www.w3.org/2000/svg" version="1.1" xmlns:xlink="http://www.w3.org/1999/xlink" width="1000" height="1000"><style>
    #light-icon {
      display: inline;
    }
    #dark-icon {
      display: none;
    }

    @media (prefers-color-scheme: dark) {
      #light-icon {
        display: none;
      }
      #dark-icon {
        display: inline;
      }
    }
  </style><g id="light-icon"><svg xmlns="http://www.w3.org/2000/svg" version="1.1" xmlns:xlink="http://www.w3.org/1999/xlink" width="1000" height="1000"><g><g transform="matrix(8.897914933797733,0,0,8.897914933797733,5.684341886080802e-14,11.586508910194084)"><svg xmlns="http://www.w3.org/2000/svg" version="1.1" xmlns:xlink="http://www.w3.org/1999/xlink" width="112.38588" height="109.78156"><svg width="112.38588" height="109.78156" viewBox="0 0 112.38588 109.78156" version="1.1" id="svg1" xml:space="preserve" inkscape:version="1.4.2 (ebf0e940d0, 2025-05-08)" sodipodi:docname="logo.svg" inkscape:export-filename="logo.png" inkscape:export-xdpi="96" inkscape:export-ydpi="96" xmlns:inkscape="http://www.inkscape.org/namespaces/inkscape" xmlns:sodipodi="http://sodipodi.sourceforge.net/DTD/sodipodi-0.dtd" xmlns="http://www.w3.org/2000/svg" xmlns:svg="http://www.w3.org/2000/svg"><sodipodi:namedview id="namedview1" pagecolor="#ffffff" bordercolor="#000000" borderopacity="0.25" inkscape:showpageshadow="2" inkscape:pageopacity="0.0" inkscape:pagecheckerboard="0" inkscape:deskcolor="#d1d1d1" inkscape:document-units="mm" inkscape:zoom="0.7846309" inkscape:cx="273.37695" inkscape:cy="209.65272" inkscape:window-width="1920" inkscape:window-height="1092" inkscape:window-x="0" inkscape:window-y="0" inkscape:window-maximized="0" inkscape:current-layer="layer2"></sodipodi:namedview><defs id="defs1"></defs><g inkscape:groupmode="layer" id="layer2" inkscape:label="Palette" transform="translate(-37.222178,-35.07534)"><path id="path2" style="opacity:1;fill:#000000;stroke-width:0;stroke-dasharray:none" d="m 93.934409,35.076263 c -21.566781,0.119866 -37.583374,9.465588 -49.497917,31.07414 -13.232909,23.999578 -7.140583,50.978737 9.172721,66.102577 12.730399,11.80218 31.350041,19.68112 51.977827,3.2397 20.62779,-16.44142 9.40053,-33.65594 8.0517,-42.086128 -1.34883,-8.430185 0.1737,-19.702394 17.19781,-4.721158 17.02411,14.981236 24.95339,-10.116279 13.15113,-26.976648 -6.06974,-9.104599 -16.18602,-22.255543 -40.80216,-25.964824 -3.07702,-0.46366 -6.170146,-0.684783 -9.251111,-0.667659 z m 7.321511,64.136138 c 1.16324,0.0161 2.21067,0.24652 3.0825,0.67799 3.66636,1.814909 3.45096,6.693779 -0.48111,10.897529 -3.932356,4.20394 -10.09266,6.14069 -13.759359,4.32583 -3.666351,-1.81491 -3.450957,-6.69378 0.481107,-10.89752 2.879926,-3.07876 7.093896,-5.053689 10.676862,-5.003829 z" sodipodi:nodetypes="ssaczzcsscccccc"></path></g><g inkscape:groupmode="layer" id="layer3" inkscape:label="Colors" transform="translate(0.00874656)"><circle style="opacity:1;fill:#5e5edc;fill-opacity:1;stroke:none;stroke-width:0;stroke-dasharray:none;stroke-opacity:1" id="path17" cx="32.085052" cy="89.787918" r="8.3454571"></circle><circle style="fill:#e07a57;fill-opacity:1;stroke:none;stroke-width:0;stroke-dasharray:none;stroke-opacity:1" id="path17-2" cx="17.054543" cy="66.67411" r="8.3454571"></circle><circle style="fill:#cbadc7;fill-opacity:1;stroke:none;stroke-width:0;stroke-dasharray:none;stroke-opacity:1" id="path17-4" cx="22.85321" cy="38.113403" r="8.3454571"></circle><circle style="fill:#81e5d1;fill-opacity:1;stroke:none;stroke-width:0;stroke-dasharray:none;stroke-opacity:1" id="path17-6" cx="44.838963" cy="19.442043" r="8.3454571"></circle><circle style="fill:#8fd959;fill-opacity:1;stroke:none;stroke-width:0;stroke-dasharray:none;stroke-opacity:1" id="path17-1" cx="71.256142" cy="21.430359" r="8.3454571"></circle></g></svg></svg></g></g></svg></g><g id="dark-icon"><svg xmlns="http://www.w3.org/2000/svg" version="1.1" xmlns:xlink="http://www.w3.org/1999/xlink" width="1000" height="1000"><g clip-path="url(#SvgjsClipPath1139)"><rect width="1000" height="1000" fill="#ffffff"></rect><g transform="matrix(6.228540453658414,0,0,6.228540453658414,150,158.11055623713582)"><svg xmlns="http://www.w3.org/2000/svg" version="1.1" xmlns:xlink="http://www.w3.org/1999/xlink" width="112.38588" height="109.78156"><svg width="112.38588" height="109.78156" viewBox="0 0 112.38588 109.78156" version="1.1" id="svg1" xml:space="preserve" inkscape:version="1.4.2 (ebf0e940d0, 2025-05-08)" sodipodi:docname="logo.svg" inkscape:export-filename="logo.png" inkscape:export-xdpi="96" inkscape:export-ydpi="96" xmlns:inkscape="http://www.inkscape.org/namespaces/inkscape" xmlns:sodipodi="http://sodipodi.sourceforge.net/DTD/sodipodi-0.dtd" xmlns="http://www.w3.org/2000/svg" xmlns:svg="http://www.w3.org/2000/svg"><sodipodi:namedview id="namedview1" pagecolor="#ffffff" bordercolor="#000000" borderopacity="0.25" inkscape:showpageshadow="2" inkscape:pageopacity="0.0" inkscape:pagecheckerboard="0" inkscape:deskcolor="#d1d1d1" inkscape:document-units="mm" inkscape:zoom="0.7846309" inkscape:cx="273.37695" inkscape:cy="209.65272" inkscape:window-width="1920" inkscape:window-height="1092" inkscape:window-x="0" inkscape:window-y="0" inkscape:window-maximized="0" inkscape:current-layer="layer2"></sodipodi:namedview><defs id="defs1"><clipPath id="SvgjsClipPath1139"><rect width="1000" height="1000" x="0" y="0" rx="350" ry="350"></rect></clipPath></defs><g inkscape:groupmode="layer" id="layer2" inkscape:label="Palette" transform="translate(-37.222178,-35.07534)"><path id="path2" style="opacity:1;fill:#000000;stroke-width:0;stroke-dasharray:none" d="m 93.934409,35.076263 c -21.566781,0.119866 -37.583374,9.465588 -49.497917,31.07414 -13.232909,23.999578 -7.140583,50.978737 9.172721,66.102577 12.730399,11.80218 31.350041,19.68112 51.977827,3.2397 20.62779,-16.44142 9.40053,-33.65594 8.0517,-42.086128 -1.34883,-8.430185 0.1737,-19.702394 17.19781,-4.721158 17.02411,14.981236 24.95339,-10.116279 13.15113,-26.976648 -6.06974,-9.104599 -16.18602,-22.255543 -40.80216,-25.964824 -3.07702,-0.46366 -6.170146,-0.684783 -9.251111,-0.667659 z m 7.321511,64.136138 c 1.16324,0.0161 2.21067,0.24652 3.0825,0.67799 3.66636,1.814909 3.45096,6.693779 -0.48111,10.897529 -3.932356,4.20394 -10.09266,6.14069 -13.759359,4.32583 -3.666351,-1.81491 -3.450957,-6.69378 0.481107,-10.89752 2.879926,-3.07876 7.093896,-5.053689 10.676862,-5.003829 z" sodipodi:nodetypes="ssaczzcsscccccc"></path></g><g inkscape:groupmode="layer" id="layer3" inkscape:label="Colors" transform="translate(0.00874656)"><circle style="opacity:1;fill:#5e5edc;fill-opacity:1;stroke:none;stroke-width:0;stroke-dasharray:none;stroke-opacity:1" id="path17" cx="32.085052" cy="89.787918" r="8.3454571"></circle><circle style="fill:#e07a57;fill-opacity:1;stroke:none;stroke-width:0;stroke-dasharray:none;stroke-opacity:1" id="path17-2" cx="17.054543" cy="66.67411" r="8.3454571"></circle><circle style="fill:#cbadc7;fill-opacity:1;stroke:none;stroke-width:0;stroke-dasharray:none;stroke-opacity:1" id="path17-4" cx="22.85321" cy="38.113403" r="8.3454571"></circle><circle style="fill:#81e5d1;fill-opacity:1;stroke:none;stroke-width:0;stroke-dasharray:none;stroke-opacity:1" id="path17-6" cx="44.838963" cy="19.442043" r="8.3454571"></circle><circle style="fill:#8fd959;fill-opacity:1;stroke:none;stroke-width:0;stroke-dasharray:none;stroke-opacity:1" id="path17-1" cx="71.256142" cy="21.430359" r="8.3454571"></circle></g></svg></svg></g></g></svg></g></svg>