<?xml version="1.0" encoding="UTF-8" standalone="no"?>
<!-- Created with Inkscape (http://www.inkscape.org/) -->

<svg
   width="113.28054mm"
   height="112.8458mm"
   viewBox="0 0 113.28054 112.84581"
   version="1.1"
   id="svg1"
   xml:space="preserve"
   inkscape:version="1.4.2 (ebf0e940d0, 2025-05-08)"
   sodipodi:docname="logo.svg"
   xmlns:inkscape="http://www.inkscape.org/namespaces/inkscape"
   xmlns:sodipodi="http://sodipodi.sourceforge.net/DTD/sodipodi-0.dtd"
   xmlns="http://www.w3.org/2000/svg"
   xmlns:svg="http://www.w3.org/2000/svg"><sodipodi:namedview
     id="namedview1"
     pagecolor="#ffffff"
     bordercolor="#000000"
     borderopacity="0.25"
     inkscape:showpageshadow="2"
     inkscape:pageopacity="0.0"
     inkscape:pagecheckerboard="0"
     inkscape:deskcolor="#d1d1d1"
     inkscape:document-units="mm"
     inkscape:zoom="0.55481783"
     inkscape:cx="466.81989"
     inkscape:cy="287.48175"
     inkscape:window-width="1920"
     inkscape:window-height="1118"
     inkscape:window-x="0"
     inkscape:window-y="0"
     inkscape:window-maximized="0"
     inkscape:current-layer="layer2" /><defs
     id="defs1" /><g
     inkscape:groupmode="layer"
     id="layer2"
     inkscape:label="Palette"
     transform="translate(-36.363181,-35.07534)"><path
       id="path2"
       style="opacity:1;fill:#000000;stroke-width:0;stroke-dasharray:none"
       d="m 93.934409,35.076263 c -21.566781,0.119866 -41.570442,9.721488 -52.120775,32.027907 -11.802259,24.953344 -2.74766,55.10095 11.080254,67.05635 18.228099,15.75974 39.437768,18.97856 51.977832,4.4319 21.56227,-25.01255 10.11585,-36.75569 8.76702,-45.185868 -1.34883,-8.430191 0.33745,-19.558293 17.19781,-4.721158 17.18786,15.125336 24.95339,-10.116279 13.15113,-26.976648 -6.06974,-9.104599 -16.18602,-22.255543 -40.80216,-25.964824 -3.07702,-0.46366 -6.170146,-0.684783 -9.251111,-0.667659 z m 7.321511,64.136138 c 1.16324,0.0161 2.21067,0.24652 3.0825,0.67799 3.66636,1.814909 3.45096,6.693779 -0.48111,10.897529 -3.932356,4.20394 -10.09266,6.14069 -13.759359,4.32583 -3.666351,-1.81491 -3.450957,-6.69378 0.481107,-10.89752 2.879926,-3.07876 7.093896,-5.053689 10.676862,-5.003829 z"
       sodipodi:nodetypes="sssssscsscccccc" /></g><g
     inkscape:groupmode="layer"
     id="layer3"
     inkscape:label="Colors"
     transform="translate(0.86774372)"><circle
       style="opacity:1;fill:#b3cde3;fill-opacity:1;stroke:none;stroke-width:0;stroke-dasharray:none;stroke-opacity:1"
       id="path17"
       cx="32.085052"
       cy="89.787918"
       r="8.3454571" /><circle
       style="fill:#ccebc5;fill-opacity:1;stroke:none;stroke-width:0;stroke-dasharray:none;stroke-opacity:1"
       id="path17-2"
       cx="17.054543"
       cy="66.67411"
       r="8.3454571" /><circle
       style="fill:#fed9a6;fill-opacity:1;stroke:none;stroke-width:0;stroke-dasharray:none;stroke-opacity:1"
       id="path17-4"
       cx="22.85321"
       cy="38.113403"
       r="8.3454571" /><circle
       style="fill:#fbb4ae;fill-opacity:1;stroke:none;stroke-width:0;stroke-dasharray:none;stroke-opacity:1"
       id="path17-6"
       cx="44.838963"
       cy="19.442043"
       r="8.3454571" /><circle
       style="fill:#fddaec;fill-opacity:1;stroke:none;stroke-width:0;stroke-dasharray:none;stroke-opacity:1"
       id="path17-1"
       cx="71.256142"
       cy="21.430359"
       r="8.3454571" /></g></svg>
