<?xml version="1.0" encoding="UTF-8" standalone="no"?>
<!-- Created with Inkscape (http://www.inkscape.org/) -->

<svg
   width="111.2524"
   height="109.78207"
   viewBox="0 0 111.2524 109.78206"
   version="1.1"
   id="svg1"
   xml:space="preserve"
   inkscape:version="1.4.2 (ebf0e940d0, 2025-05-08)"
   sodipodi:docname="logo.svg"
   inkscape:export-filename="logo.png"
   inkscape:export-xdpi="96"
   inkscape:export-ydpi="96"
   xmlns:inkscape="http://www.inkscape.org/namespaces/inkscape"
   xmlns:sodipodi="http://sodipodi.sourceforge.net/DTD/sodipodi-0.dtd"
   xmlns="http://www.w3.org/2000/svg"
   xmlns:svg="http://www.w3.org/2000/svg"><sodipodi:namedview
     id="namedview1"
     pagecolor="#ffffff"
     bordercolor="#000000"
     borderopacity="0.25"
     inkscape:showpageshadow="2"
     inkscape:pageopacity="0.0"
     inkscape:pagecheckerboard="0"
     inkscape:deskcolor="#d1d1d1"
     inkscape:document-units="mm"
     inkscape:zoom="1.8565586"
     inkscape:cx="38.781431"
     inkscape:cy="65.443666"
     inkscape:window-width="1280"
     inkscape:window-height="770"
     inkscape:window-x="0"
     inkscape:window-y="0"
     inkscape:window-maximized="0"
     inkscape:current-layer="layer2" /><defs
     id="defs1"><inkscape:perspective
       sodipodi:type="inkscape:persp3d"
       inkscape:vp_x="6.8791581 : 41.419443 : 1"
       inkscape:vp_y="0 : 609.76477 : 0"
       inkscape:vp_z="90.614926 : 41.419443 : 1"
       inkscape:persp3d-origin="48.747042 : 30.262571 : 1"
       id="perspective1" /></defs><g
     inkscape:groupmode="layer"
     id="layer2"
     inkscape:label="Palette"
     transform="translate(-38.355663,-35.074841)"><circle
       style="fill:#cecece;fill-opacity:1;stroke:none;stroke-width:3.40157;stroke-dasharray:none;stroke-opacity:1"
       id="path1"
       cx="93.981865"
       cy="89.965874"
       r="54.891033" /></g><g
     inkscape:groupmode="layer"
     id="layer3"
     inkscape:label="Colors"
     transform="translate(-1.1247393,4.9865002e-4)"><g
       id="g1"><path
         id="path2"
         style="opacity:1;fill:#000000;stroke:none;stroke-width:0.816016;stroke-dasharray:none;stroke-opacity:1"
         d="m 93.951196,50.463544 c -12.278335,0.08626 -28.168892,7.874417 -35.622718,22.363472 -7.662818,14.895302 -5.138943,36.688434 6.601434,47.572784 9.161828,8.4938 22.562034,14.16413 37.407468,2.33155 14.84543,-11.83258 6.76538,-24.221549 5.79465,-30.288597 -0.97073,-6.067045 0.12501,-14.179442 12.37694,-3.397728 12.25193,10.781713 17.95849,-7.280496 9.46462,-19.414585 -4.36828,-6.552409 -11.64877,-16.016895 -29.36454,-18.686395 -2.214477,-0.333687 -4.440562,-0.49608 -6.657854,-0.480501 z m 5.269153,46.157569 c 0.837161,0.01159 1.590981,0.177416 2.218421,0.487937 2.63861,1.306156 2.48359,4.81739 -0.34625,7.84275 -2.830042,3.02549 -7.263497,4.41934 -9.902351,3.11321 -2.638604,-1.30615 -2.483589,-4.81738 0.346244,-7.84273 2.072628,-2.215731 5.105343,-3.63705 7.683936,-3.601167 z"
         sodipodi:nodetypes="ssaczzcsscccccc"
         transform="translate(-37.230924,-35.07534)" /><circle
         style="opacity:1;fill:#f7c3f8;fill-opacity:1;stroke:none;stroke-width:0;stroke-dasharray:none;stroke-opacity:1"
         id="path17"
         cx="39.00285"
         cy="80.00621"
         r="6.0060682" /><circle
         style="fill:#d5f3df;fill-opacity:1;stroke:none;stroke-width:0;stroke-dasharray:none;stroke-opacity:1"
         id="path17-2"
         cx="28.185677"
         cy="63.371639"
         r="6.0060682" /><circle
         style="fill:#7e8be7;fill-opacity:1;stroke:none;stroke-width:0;stroke-dasharray:none;stroke-opacity:1"
         id="path17-4"
         cx="32.358868"
         cy="42.817036"
         r="6.0060682" /><circle
         style="fill:#eaed78;fill-opacity:1;stroke:none;stroke-width:0;stroke-dasharray:none;stroke-opacity:1"
         id="path17-6"
         cx="48.181599"
         cy="29.379612"
         r="6.0060682" /><circle
         style="fill:#ed7e86;fill-opacity:1;stroke:none;stroke-width:0;stroke-dasharray:none;stroke-opacity:1"
         id="path17-1"
         cx="67.19355"
         cy="30.810564"
         r="6.0060682" /></g></g></svg>
